<?xml version="1.0" encoding="UTF-8"?>
<svg id="Layer_1" xmlns="http://www.w3.org/2000/svg" version="1.1" viewBox="0 0 1024 1024">
  <!-- Generator: Adobe Illustrator 29.1.0, SVG Export Plug-In . SVG Version: 2.1.0 Build 142)  -->
  <path d="M468,232.1c-29.8,5.2-61.3,17.1-87.5,32.9-14.8,9-38.5,30.8-53.2,49-9.4,11.6-10.4,13.2-19,28.3-12.2,21.6-15.1,29.1-21.7,57.2-5.2,22-5.9,28.5-6,55s.8,34,6.7,54.9l3.2,11.1,16.7-.5,16.7-.5-4-9c-7.8-17.3-6.3-23,7.5-30l7.8-3.9,55.9-.4c40.5-.3,55.9-.8,55.9-1.6-.1-.6-.9-2.6-1.9-4.4l-1.7-3.3h-23.5c-12.9.1-34-.3-46.9-.9-21.2-.9-23.6-1.1-25.4-2.9q-1.9-2,.5-2.5c1.3-.3,23.2-.7,48.6-.8,25.4-.2,46.3-.5,46.6-.8.2-.3.7-3.3,1-6.7l.5-6.1-6.2-2.8c-5.6-2.6-7.1-2.9-18.3-2.9h-12.2l-9.6,5c-9.2,4.7-10.1,5-17.4,5s-13.5-1.8-23.5-9.5c-6.4-4.9-7.2-5.3-13.2-5.5-14.7-.8-23.6-4.3-27.1-10.7-3.1-5.7-2.4-18.3,1.6-29.8,9.2-26.3,26.6-54.4,45.6-73.6,9.9-10,27.2-23.5,39.2-30.7,20.1-12.2,46.5-21.3,59.4-20.5,5.3.3,7.3.9,10.2,3.1,5.7,4.3,6.2,5.9,6.2,19.4v12.3h12c11.8.1,23.3,1.1,26.8,2.5,1.6.7,1.7-.4,1.7-13.8s.4-17.5,8.6-22.3c4-2.4,5.3-2.6,11.2-2.2,8.4.6,27.3,6.5,41.7,13,20.5,9.2,45.2,27.6,60.5,45,19.9,22.7,38.3,58.4,42,81.3,1.1,7,.7,10-2.1,15.7-2.5,5-6.2,7.6-11.7,8.3-11.9,1.6-15.3,2.7-22.9,7.7-12.8,8.4-17.4,10.1-25.2,9.6-5.3-.4-8.4-1.4-15.6-5-13-6.6-15.8-7.2-20.9-4.6-2.2,1.1-6.8,3.9-10,6.2-5.7,4-6.1,4.1-15.2,4.4l-9.4.4v3.4c0,2.7.5,3.5,2.3,3.9,1.2.3,21.4.6,44.9.7,32.2.2,43,.6,43.9,1.5,3.6,3.6-5.1,4.6-49.6,5.2l-41,.6-.6,4c-.4,2.2-.5,4.2-.4,4.3.2.2,13.6.4,29.7.3,16.1,0,41.5.3,56.3.8,24.4.7,27.6,1,32.8,3.1,15,5.7,17.8,14.3,10.7,32.8-1.7,4.2-3,7.7-3,7.8h32.9c0-.1,2.6-11.1,2.6-11.1,5.4-22.9,6.6-32.7,6.6-54s-.6-27.5-4.7-48c-8.6-43.2-30.7-83-64.6-116.1-23.9-23.3-46.5-37.4-76.8-47.9-26.6-9.2-44-12.5-69-13.1-17.2-.4-19.7-.2-36,2.7ZM535,240.4c13.7,2.9,23.3,5.4,21,5.5-.8,0-5.5-.9-10.5-2-11.7-2.6-42.3-4-62-3-15.1.8-37.5,5.2-53,10.3-13.1,4.3-42,19.7-57.3,30.4-15.4,10.9-16.2,11.1-3.2.9,8.3-6.5,24.6-16.3,40.5-24.3,15.8-7.9,42.1-16,66.5-20.6,1.4-.2,12.2-.3,24-.2,18.7.3,23.1.7,34,3Z"/>
  <path d="M659.1,377.2c-1.1-2.2-3.1-4.8-4.3-5.6-2.5-1.8-9.2-2-15.1-.7-3.3.8-3.9.6-4.9-1.3-2.3-4.4-8.1-10.7-12.2-13.1-2.3-1.3-7.6-3.1-11.7-4-6.3-1.2-36-3.5-46.3-3.5s-3.6-.7-6.6-5.8c-4.4-7.3-11.3-14.7-16.5-17.7-13.9-8.1-55.4-12.4-87.2-9-44.1,4.6-62.6,14.7-79.8,43.8-4.2,7.2-8.9,13.7-12,16.5-11.1,10.5-16.4,16.5-19.3,22-2.8,5.3-6.2,15-6.2,17.8s5.4,3.4,10.5,3.4h4.3l.6-4.4c1-6.5,5.8-15.5,11.2-20.8,12.1-12.2,31-6.5,37.8,11.2l1.7,4.5-5.8-6.2c-7.6-8.1-11.4-10.3-18.1-10.3-12.2,0-21.2,9.5-21.2,22.5,0,19.2,21.5,30.2,36.8,18.8,4.8-3.6,10.1-11.2,10.8-15.5.4-2.1,1-3.5,1.5-3.3,2.9,1.9,3-15.3,0-21.6-5.4-11.5-13.7-16.9-26-16.9s-10.2.6-13.4,1.4c-8,1.9-5.9-.5,3-3.5,9-2.9,20.1-2.4,26.4,1.3,5.9,3.5,8.3,6.2,11.5,13.2,3,6.5,3.4,12.3,2,26.3l-.9,8.3h13c13,0,13.1,0,13.7,2.4.7,3,7.8,8.3,12.8,9.6,4.5,1.3,10.5,0,14.7-2.9,3.2-2.3,5.7-5.9,4.7-6.8-.3-.3-4.5-.9-9.3-1.2-5.7-.4,3.9-.9,27.5-1.3,20-.3,36.5-.8,36.8-1.1.2-.2,1.5-4.8,2.8-10.1,4.4-18.3,14.1-27.6,28.8-27.6s9.5,1.4,14.6,6.3c5,4.8,8.2,10.4,8.2,14.3s-.5,1.8-4.1-3.5c-5.5-8.2-8.8-10.4-16.5-10.9-10.5-.7-17.5,2.6-22.1,10.6-2.4,4.1-2.8,5.8-2.8,12.7s2.1,14.3,7.6,18.9c7.8,6.6,15.9,8.4,25.6,5.7,5.8-1.6,12.7-8.6,16.3-16.6,2.1-4.7,3.7-6.8,5.6-7.5,1.5-.6,16.2-1.3,32.8-1.6,16.5-.3,32.1-.7,34.5-1l4.3-.6-.7-9.4c-.5-7.5-.3-10.8,1-15.8,1.7-6.1,1.7-6.4-.4-10.4ZM389,423.5c-4,6.5-10.5,6.8-16.4.6-5.2-5.4-5.5-12.3-.8-17.4,3.4-3.6,9.8-3.8,13.9-.3,1.1,1,1.8,1.6,2,2.3,1.3,1.5,2.1,3.6,2.4,5.5,0,.3.2.5.2.8,0,0,0,0,0,0,1.3,0,.3,5.6-1.5,8.5ZM562.4,427c-3.1,2.7-4.3,3.1-7.1,2.7-4.2-.7-8.9-4-10.8-7.7-1.8-3.5-1.9-11.6-.2-15,2.6-5.1,9.2-6.3,16.4-3,2.5,1.1,5.1,3.3,6.3,5.2,3.7,6,2.2,11.8-4.6,17.8ZM502.7,327c5.4,0,12.6.5,16,1,3.4.6,9.2,2,12.9,3.1,5.8,1.8,7.7,3,13.6,8.9s6.8,7.3,6.8,7.9-6.4,1.1-21.9,1.1h-21.9l-5.3-5.6c-5.2-5.3-7.9-9.4-9.3-14.2-.7-2.2-.6-2.2,9.1-2.2ZM440,341.2c0-10.7.9-11.9,9-12.5,14.3-.9,26.2-.7,29.5.7,2.5,1.1,4.8,3.6,8.5,9.2,2.7,4.2,5,8,5,8.5,0,1.3-5.3,1.8-29.2,2.4l-22.8.6v-8.9ZM405.6,339.9c5.4-3.1,22.5-9.8,25.3-9.9,1.1,0,1.3,1.6.7,8.6-.3,4.7-1.1,9.4-1.6,10.4-1.1,2-10,3.5-27.2,4.5-7.8.4-9.8.3-9.8-.8,0-2.5,7-9.6,12.6-12.8ZM572,372.4c-3.6-.8-10.5-1.6-15.5-1.6-7.5,0-11,.5-21.2,3.5-15,4.5-26.9,10.3-43.7,21.6-7,4.7-14.4,9.6-16.5,10.9-4.7,2.9-17.5,7-24.3,7.7-5,.5-4.7.3,5.2-3.3,8.6-3.1,13.4-5.7,26.4-14.5,15.9-10.9,29-18.1,40.1-22.2,5-1.9,13-3.6,27.5-5.8,4.6-.8,10.4-.6,17.7.3,4,.5,9,1.8,11,2.9,4.8,2.5,2.4,2.7-6.7.5ZM497.5,361.7c-78.2.8-101.5,1.8-113.9,4.9-2.9.7-3.6-1-.9-2,.9-.4,10.3-1.8,20.9-3.2,14.3-1.8,27.1-2.6,50.1-3.3,38.7-1,124.5-1.3,134.6-.5,4.3.4,7.7,1,7.7,1.4,0,1.2-28.1,2-98.5,2.7ZM599.6,388.7c-2.1,2.5-2.6,2.6-5,1.5-2.6-1.2-6.5-7.9-6.6-11.3,0-2.2,3.8-6.9,5.6-6.9s2.4.5,3.5,1c2.5,1.4,4.9,6.2,4.9,9.9s-1,4.2-2.4,5.8ZM614.7,375.7c1-1,21.1-.8,21.7.2,1,1.6-2.3,2.1-12.5,2.1s-11.1-.5-9.2-2.3ZM630.8,383.2c5.6-.2,7.2,0,7.2,1.2,0,2.1-2.4,2.6-11.3,2.5-18.8-.2-15.4-3.3,4.1-3.7ZM638,395c0,1.8-.7,2-6.2,2-10,0-16.8-1.1-16.8-2.6s2.5-1.4,11.5-1.4,11.5,0,11.5,2ZM626.9,404c-9.2,0-11.9-.3-11.9-1.3s.3-1.7.8-2.2c.8-.8,21.6,0,23.2,1,2.7,1.7-1.2,2.5-12.1,2.5ZM652.8,389.8c-3.1.6-6.8-4.2-6.8-8.7s2.1-7.4,4.4-6.5c.7.3,2.1,2,3.1,3.7,2.2,4.1,1.7,11-.7,11.5Z"/>
  <path d="M659.4,419c-.6.6-3,1.4-5.5,1.9l-4.4.9h4.7c5.5.2,7.8-.5,7.8-2.4s-1.2-1.8-2.6-.4Z"/>
  <path d="M619.7,424l-19.8.5,3.5,4.1c4.5,5.3,14.2,10.4,19.8,10.6,7.8.1,14.6-3.9,19.4-11.4,3-4.7,3-4.8-.3-4.6-1.6.1-11.7.5-22.6.8Z"/>
  <path d="M540.5,455.4c-.7-5.7-1-6.2-8.4-13.7l-7.7-7.7-9.5.2c-5.2,0-16.4.5-25,.8l-15.5.5-7.2,6.6c-4.8,4.4-7.6,7.7-8.2,10-2.5,8.6,0,21.7,5.7,31.6,4.1,7.1,13.5,15,20,16.9,7.8,2.3,22.7,1.5,30.6-1.5,8-3.1,10.9-5.9,17.2-16.5,6.7-11.3,9-19.1,8-27.2ZM520,467.6c-.5,1.5-1.8,3.6-3.3,5.7-.5.8-1,1.6-1.7,2.4-.8,1-1.9,2-3.1,2.8-.1,0-.2.2-.3.2-3.4,2.2-7.9,3.5-11.9,3.1-.8,0-1.7,0-2.5,0-3.7.5-6.1-.3-10.1-3.8-3.5-1.6-6.5-4.1-8.3-7.2-.8-.9-1.4-1.9-2-3-.2.2-.5-.1-.9-1-1.9-3.2-.6-12,2.5-16,.6-.8,1.3-1.5,1.8-2.1.7-1,1.6-1.8,2.6-2.6,0,0,.1-.1.2-.2,2.2-2.6,4.9-4.7,8.6-5.2,1.3-.2,2.6-.2,3.8,0,1.3,0,2.6,0,3.9.2,5.2.3,10.5,1.8,14.2,5.6,2.4,2.5,4,5.2,5,8.1.1.2.2.4.3.6.5,1.2.8,2.6,1,4,.5.7.7,1.6.7,2.7,0,.5,0,.9,0,1.3,0,0,0,0,0,0,0,.2,0,.4,0,.6.2-.2.3-.3.4-.2.3.3,0,2.2-.7,4.3Z"/>
  <path d="M345,485c-7.4.4-13.6.8-13.7.9-.2,0-.3,1.4-.3,2.9v2.9l15.8.6c23,1,107.2.8,107.2-.2s-1-2.3-2.3-4.2l-2.3-3.4h-45.4c-25-.1-51.6.2-59,.5Z"/>
  <path d="M543.8,488l-1.7,4h62.5c61.5,0,62.4,0,62.4-2s-1.2-2.8-2.7-3.7c-2.5-1.7-7.2-1.8-60.8-2.1l-58-.3-1.7,4.1Z"/>
  <path d="M391,502l-54.5.5v6l57.5.3c59.6.3,74.4-.1,73.7-2.1-.2-.7-1.8-2.2-3.7-3.5-2.8-1.9-4.4-2.2-10.9-2-4.2.2-32.1.5-62.1.8Z"/>
  <path d="M533.1,503.6c-7,5.8-9.2,5.6,61.3,5.3,35.4-.2,64.6-.6,64.9-.9s.8-2,1.2-3.8l.7-3.2h-125l-3.1,2.6Z"/>
  <path d="M357.5,533.3c-3.9,2.1-5,2.2-43.3,2.2s-39.2.4-39.2,1,1.4,1.9,3.1,3c1.6,1.1,3.9,3.4,5,5.2,1.9,3,1.9,4.8,1.7,50.6l-.3,47.5-4.8,6.2c-7.6,9.7-7.5,10.1,2.2,7.5,10.8-2.8,64-9.5,76.1-9.5h7.6l1.2-15.3c.7-8.3,1.5-16.9,1.8-19,.9-5-.6-4.8-6.9,1.2-2.9,2.8-6.4,5.4-7.9,6-2.7,1-16.4,2.7-32,3.9l-9.8.8v-19.3l11.3-.6c18.3-1.1,19.5-1,22.3,1.8s2.9,2.5,3.3,2.5c.8,0,2.2-36.1,1.5-36.9-.3-.3-2.2,1.3-4.4,3.4l-3.9,3.8-11.8.8c-6.5.4-13.3.8-15,.8h-3.3c0,.1,0-9.7,0-9.7v-9.8h6.8c3.7-.2,12.3-.6,19.2-.9,14.7-.8,17.3-.1,23.7,6.6,2.3,2.3,4.4,4.1,4.7,3.8.3-.2-.1-4.5-.9-9.4-.7-5-1.6-13.3-2-18.5s-1-10-1.4-10.7c-.4-.8-1.8-.5-4.6,1Z"/>
  <path d="M533.7,533.9c.3,1.1,0,5.7-.6,10.3s-1.3,12.5-1.7,17.5c-.6,7.7-.4,9.3.7,9.3s2.2-1.2,3.1-2.8c.9-1.5,3-4,4.7-5.7,2.9-2.7,3.8-2.9,12.4-3.3l9.2-.4v72.1l-3.9,4c-2.8,2.9-3.5,4.2-2.5,4.5,2.3.7,44.9,1.5,44.9.8s-2.1-2.5-4.7-4.7l-4.7-4.2-.7-11.9c-1-15.3-1.1-41.6-.2-52.2l.6-8.3,7.6.6c11.7,1,15.3,2.6,18.5,8.5,1.5,2.8,3.1,5,3.7,5s.9-8.1.9-19.8v-19.7h-39.7c-21.9,0-41.7-.3-44-.7-3.7-.7-4.1-.6-3.6,1.1Z"/>
  <path d="M380.3,533.7c-6.3.2-11.3.8-11.3,1.3s1.7,2.1,3.9,3.5c2.1,1.5,4.9,4.7,6.3,7.3,2.8,5.2,28.8,83.8,28.8,87.1s-1.5,3.2-3.5,4.7c-3.8,2.8-4.6,5.4-1.7,5.4s7.1-.7,13.7-1.5,15.3-1.5,19.3-1.5c8.2,0,9.2-1.2,4.1-4.9-3.9-2.9-3.8-3.6,3.8-26.2l5.6-16.6,5.7,16.6c3.2,9.1,6.3,17.9,6.9,19.4,1.5,3.9,1.4,4.4-1.4,6.9-3,2.6-3.5,6.4-.7,5.3.9-.4,10.1-1,20.5-1.3,10.3-.2,18.7-.7,18.7-1s-1.6-2.3-3.7-4.4l-3.6-3.7,1.7-7.8c1.7-7.4,5.6-20.2,13.2-42.8,1.8-5.5,4-12.9,4.9-16.3,2.6-10.3,8.6-22.3,13-26,2.2-1.7,3.6-3.4,3.3-3.7s-10.3-.4-22.3-.3l-21.8.3,3.6,4.3c3.2,3.8,3.5,4.5,2.6,7.5-.6,1.7-1.5,4.8-2,6.7-2.3,8-9.2,29.8-10.6,33.2-1.5,3.8-3.3,5.1-3.3,2.3s-2.2-8.3-4.8-16.7c-2.7-8.4-5.7-18.4-6.7-22.2l-1.9-6.9,4.7-4.3,4.6-4.4h-20.5c-12.2,0-20.4.4-20.4.9s1.6,2.2,3.5,3.6c1.9,1.5,3.7,3.5,4,4.5,1.2,3.9-2.6,22.7-7.7,37.7-2.8,8.3-5.5,15-5.9,14.8-.3-.3-.9-1.5-1.2-2.7-.2-1.3-3.2-12.2-6.6-24.3-3.3-12.1-6.1-22.9-6.1-24s1.9-3.9,4.2-6.2l4.2-4.3-12.9.2c-7.2.1-18.1.4-24.2.5Z"/>
  <path d="M246.3,535.3c-12.3.6-22.3,1.3-22.3,1.6s1.5,2.1,3.4,3.9c2.3,2.1,3.6,4.4,4,6.9.5,3.6.6,62.3,0,62.3-1.4,0-38-54.7-42.2-63.1s-3.2-7-2.3-8.8l1.2-2.1h-20.1c-11,0-20,.4-20,.8s1.4,2.1,3.1,3.8c6.7,6.4,6.4,2.8,6.7,68.4.2,39.4,0,60.7-.7,63.1-.6,1.9-2.9,6.3-5.1,9.7-2.7,4.2-3.5,6.2-2.5,6.2s6.5-2,12.7-4.4c11.8-4.5,21-7.1,29.1-8.2,2.6-.4,5-1,5.2-1.4.3-.4-2-2.6-5-4.9s-5.7-5.1-6-6.4c-.3-1.2-.4-16.6-.3-34.1l.3-31.9,4.7,6.9c8.9,13,23,32.9,30.9,43.5,4.3,5.8,7.9,11.2,7.9,11.8s-1.2,2.2-2.7,3.5c-4.2,3.6-2.2,4.8,4.5,2.5,7.3-2.6,17.4-4.6,28-5.5,4.5-.3,8.4-1,8.7-1.4.2-.4-1.8-2.8-4.6-5.4l-5-4.7.4-49.2c.4-55,.2-53.6,7.6-59.9,3.8-3.3,5.1-5,3.4-4.6-.5.1-10.8.6-23,1.1Z"/>
  <path d="M839.8,534.8c-12.6.1-22.8.5-22.8.8s1.9,2.3,4.3,4.4l4.2,3.8.5,35.8c.3,19.8.4,36,.4,36.2-.1.2-2.5-3.7-5.3-8.7-4.8-8.6-8.6-14.7-30.4-48.7-5.3-8.4-9.7-16.2-9.7-17.5s.6-3,1.4-3.8c1.3-1.5-.4-1.6-18.6-1.7h-20c0-.1,4.1,3.6,4.1,3.6,2.2,2,4.5,5,5.1,6.5,1,2.8.5,95.9-.6,101.2-.2,1.2-2.3,4-4.6,6.2-4.7,4.6-4.9,4.5,6.9,6.1,4.5.6,13.8,2.6,20.7,4.5,7,1.9,13.1,3.5,13.6,3.5,1.8,0,1-2.1-2.4-6.3-1.8-2.3-3.8-5.2-4.5-6.4-.7-1.4-1.3-12.3-1.7-30l-.7-27.8,6.4,9.7c3.5,5.4,9.2,14.2,12.5,19.5,27.6,44,28.9,46.3,26.5,46.3s-1.1.6-1.1,1.2,4.8,3,10.8,5.2c5.9,2.1,13.4,5.1,16.7,6.7,13.3,6.2,14.4,5.9,8.4-2.2-7.3-9.7-6.9-5.7-6.9-71.3s.4-60.4,1.1-63c.6-2.1,3-6,5.5-8.6,2.5-2.7,4.1-5,3.7-5.2-.4-.1-11-.2-23.5,0Z"/>
  <path d="M665.4,536.4c-12.5,2.9-22.8,10.6-28.9,21.7l-3,5.4-.3,20.7c-.6,32.1,1,38.2,13.2,50.4s13.3,10.6,30.1,13.6c15.2,2.7,25.2,2.2,32.8-1.5,7.1-3.5,14.6-10.9,17.8-17.4,2.4-4.7,2.4-5.3,2.4-33.8v-29l-2.8-5.8c-5.2-10.5-17.1-20-29.2-23.2-8.5-2.3-24.6-2.8-32.1-1.1ZM694.7,565.3c8.4,4.3,8.3,4.1,8.3,28.6v21.4l-3.5,3.3c-4.7,4.4-8.8,5-19.8,3.1-9.9-1.8-14.2-3.9-17.2-8.3-1.8-2.7-2-4.6-2-22.6v-19.7l3-3.2c4.8-5,7.9-6,17.5-5.6,6.7.3,9.6,1,13.7,3Z"/>
  <path d="M477,664.9c-13.2,4.2-19.7,16.1-16,29,2.7,9.5,12.7,16.8,21.4,15.9,5.5-.7,13.2-4.3,15.1-7.2.8-1.2,1.5-5.3,1.6-10.1l.2-8-9.1-.3-9.2-.3v5.2c0,5.5.3,5.6,6.4,3.3,1.2-.5,1.6,0,1.6,1.9,0,3.6-2.5,5.1-8.2,5.1s-5.4-.4-7.4-2.7c-2.7-3.2-3.9-8.3-3-13.1,1.5-8.1,13-12.8,17.4-7.2l1.9,2.5,4.2-4.3,4.2-4.3-6-2.6c-7-3-11.6-3.9-15.1-2.8Z"/>
  <path d="M539,665c-11.1,2.1-17.2,10.6-13.4,18.6,2.2,4.5,6,6.9,14.3,8.8,6.9,1.6,8.5,2.9,7,5.8-1.3,2.4-9.6,2.5-13.9,0l-3.1-1.7-3,3.5c-1.6,1.9-2.9,3.7-2.9,4s2.5,1.9,5.6,3.5c6.4,3.3,14.1,4.3,18.4,2.5,4-1.7,8.7-7.1,9.9-11.6,2.1-7.5-2.7-12.6-14.5-15.5-8.8-2.1-10.3-3.9-6.4-7.4,2.4-2.2,9.1-1.6,12.1,1.1,1.9,1.7,2,1.7,3.6-.6.9-1.3,2.5-3.2,3.5-4.2,1.7-1.7,1.6-1.9-3-4.1-5.7-2.9-9.5-3.6-14.2-2.7Z"/>
  <path d="M413.7,665.9c-.1.4.2,10.7.8,23.1l1,22.5,4.8-.3,4.9-.3-.4-11.9c-.4-14-.9-14,10.3.9,7.6,10,8,10.4,11.8,10.5h3.9c0,.1.1-21.1.1-21.1.1-11.7.4-21.9.7-22.8.5-1.2-.4-1.5-5-1.5h-5.6v12.2c-.1,11.9-.2,12.2-1.8,9.8-.9-1.3-5-6.5-9.1-11.5-6.9-8.4-7.6-9-11.8-9.6-2.4-.3-4.5-.3-4.6,0Z"/>
  <path d="M577.9,668c-5.8,3.1-10.7,9.2-11.5,14.5-2,13.7,4.2,24.5,15.8,27.6,4.4,1.2,4.9,1.1,11-1.9,7.3-3.7,10.8-6.3,9.2-6.8-.5-.3-2.5-1.5-4.4-2.8l-3.4-2.3-3.4,2.4c-4.3,2.9-5.1,2.9-9.3,0-4.3-2.9-5.9-6-5.9-11.6s.6-4.9,3.4-7.7c4.3-4.3,7.9-4.4,12.6-.5l3.4,2.8,3.3-3.5c3.9-4.1,3.6-4.9-4.2-9.3-5.9-3.4-11.3-3.7-16.6-.9Z"/>
  <path d="M610.4,670c.3,1.9.6,12.1.6,22.6v19.2l4.5.4,4.5.3v-16.5h18v16.8h5.3c0-.1,5.2-.3,5.2-.3v-44.5h-3.7c-2,0-4.3-.3-5.2-.6-1.4-.5-1.6.5-1.6,7.4,0,11.5.3,11.2-9.6,11.2h-8.4v-18.8l-5.1-.4-5.1-.3.6,3.5Z"/>
  <path d="M371.5,668.5c-.2.5-1.3,4.8-2.5,9.5s-3.3,11-4.6,14l-2.5,5.5-4.8-11.6c-2.6-6.4-5.1-12.8-5.5-14.2-.6-2.5-.9-2.6-5.4-2-2.6.3-4.9.7-5.1.9-.8.7,6.3,18.7,14,35.5l3.1,6.8,4.3-.2,4.3-.2,3.6-9c2.8-7.3,12.6-34.8,12.6-35.8s-11.3,0-11.5.8Z"/>
  <path d="M391.1,684.2c0,9.5.3,19.6.6,22.5l.5,5.1,4.9.4,4.9.3v-45.5h-10.9v17.2Z"/>
  <path d="M668.5,672.9c-4.7,2.2-8.9,6.4-10.4,10.4s-1.1,5.4-1.1,8.6c0,7,3.6,14.9,8.5,18.7,8.3,6.3,21.9,2.9,28-7,2.5-4.2,3-6,3-11.5,0-12.3-7.8-21.1-18.5-21.1s-7.2.8-9.5,1.9ZM681.1,682.7c3.1,1.8,5.9,6.7,5.9,10.3,0,5.8-6.6,11.5-12.6,10.8-6.1-.7-9.7-12-5.7-17.8,3.7-5.3,7.3-6.3,12.4-3.3Z"/>
  <path d="M322.7,673c-.1.3-.1,10.2.1,22.1l.3,21.6,4.7-.5c2.6-.2,4.8-.5,4.9-.6s.3-9.9.5-21.9l.3-21.7-5.3.2c-3,.2-5.4.5-5.5.8Z"/>
  <path d="M715.9,677.4c-9.2,4.9-13.4,12.4-11.8,21,1.6,8.9,6.2,15.1,13.1,18.1,8,3.3,15.1,1.4,21.5-5.9,6.6-7.5,7-17.4,1-26.3-5.7-8.4-15.6-11.2-23.8-6.9ZM729.9,689.5c2.4,2.7,3.1,4.5,3.1,7.6,0,10.7-14.4,14-18.1,4.2-1.9-5.1-1.1-8.9,2.6-12.2,4.9-4.2,8.4-4.1,12.4.4Z"/>
  <path d="M284.6,676.7l-7.9.4.7,4.6c.3,2.5.6,12.7.6,22.7v18.1l5.3-.3,5.4-.4-.5-8-.5-7.9,3.4.3c2.8.3,4,1.3,7.7,6.5l4.3,6.3h5.5q6,0,1.8-5.5c-1.3-1.7-3-4.6-3.8-6.5-1.4-3.4-1.4-3.5,1.7-6.1,3-2.5,3.2-3.1,3.2-9.2s-.3-6.9-3-9.7c-4.1-4.3-7.7-6-12.2-5.8-2.1.1-7.3.4-11.7.5ZM300.1,686c1.4.8,1.9,2.1,1.9,5.1s-.4,4.1-2.6,4.9c-1.4.6-4.8,1-7.5,1h-4.9v-5.3c0-3,.3-5.7.7-6,1-1.1,10.2-.8,12.4.3Z"/>
  <path d="M753.2,699.7c-.3,21-.2,22.3,1.5,22.4,6.8.2,24.1,1.8,25.4,2.3,1.4.6,1.7-.2,2.2-4.6.3-3.4.1-5.6-.7-6-.6-.4-3.9-.8-7.3-.8s-7.4-.5-8.8-1l-2.7-1,.4-16.4.3-16.4-5-.4-5.1-.3-.2,22.2Z"/>
  <path d="M238,681.7l-7.5.4.3,22.2c.2,12.2.4,22.2.5,22.3s4.8-.7,10.4-1.7c15.1-2.7,20.9-6.4,25.2-15.9,2.5-5.4,2.5-6.3.6-12.6-2.4-8.2-11.6-15.6-18.7-15.2-1.8.1-6.7.4-10.8.5ZM250.3,690.9c3.4,1.3,7.5,5.9,8.2,9.2.8,3.5-1.7,9.3-4.8,11.4-1.3.8-4.8,1.8-7.6,2.2l-5.1.6v-9.4c0-5.2-.3-10.4-.6-11.6-.5-1.9-.1-2.2,2.8-2.6,1.8-.2,3.6-.5,4-.5.4-.1,1.8.2,3.1.7Z"/>
  <path d="M172.1,702.8c-.6.2-1.1,1.8-1.1,3.7,0,3.2.1,3.3,5.2,3.7,2.8.3,13,.3,22.7,0l17.6-.5.2-3.3c.1-2.7-.3-3.5-2-4-2.3-.5-40.7-.2-42.6.4Z"/>
  <path d="M813.5,702.8c-20.3.3-20.5.3-20.5,5.6v2.9l22.3-.8c12.2-.4,22.5-.9,23-1.2.4-.2.7-1.5.7-2.8,0-4-.9-4.1-25.5-3.7Z"/>
</svg>