<?xml version="1.0" encoding="UTF-8"?>
<svg id="Layer_1" data-name="Layer 1" xmlns="http://www.w3.org/2000/svg" viewBox="0 0 203.69 141.8">
  <defs>
    <style>
      .cls-1 {
        fill: #fff;
      }
    </style>
  </defs>
  <path d="M40.85,82.82c-.08.01-.32.43-.42.28-1.02-4.66-2.54-9.3-2.85-14.11C35.53,37.47,54.62,9.75,85.27,1.93c28.03-7.16,55.95,6.18,69.62,31.13,8.34,15.23,9.76,33.09,5.07,49.77-3.08-.69-6.28-.11-9.39,0,1.13-3.47,3.84-7.91-.02-10.66-4.64-3.31-12.2-1.06-17.47-2.17h-18.65s.33-2.08.33-2.08l.42-.44c6.92-.49,14.45.52,21.3-.04,1.39-.11,3-.65,4.4-.87v-.84s-25.17-.29-25.17-.29c-1.18-.22-1.05-1.3-1-2.27h4.7c1.16,0,4.62-3.45,6.3-3.62,2.12-.21,6.05,3.08,8.79,3.33,4.94.46,6.3-2.9,10.02-4.21s7.38.25,8.21-5.18c.66-4.32-3.99-13.81-6.3-17.65-6-9.96-15.29-18.07-26.23-22.18-2.68-1-7.96-2.85-10.68-2.29-.82.17-3.62,2.13-3.62,2.93v8.12c-3.75-1.17-7.77-.8-11.67-.86,3.35-15.87-12.55-9.07-20.12-4.89-10.82,5.97-19.85,16.19-24.43,27.69-1.59,4-4.44,11.55,1.21,13.6,2.04.74,3.95.56,5.91.69s4.88,4.1,8.56,4.48c4.53.47,6.16-2.65,9.68-3.07,3.27-.39,6.6.17,9.49,1.7l-.25,3.21c-.09.41-3.93.73-4.7.77-7.04.34-14.73-.58-21.66-.03-.5.04-1.17.08-1.55.44.33.28.63.82,1.05.94.5.14,2.89.31,3.63.35,7.18.41,14.45.21,21.66.28.39,0,.77-.12,1.14-.2l1.26,2.75c-8.47.25-17.01-.32-25.49-.01-3.49.13-7.69.04-10.52,2.29-3.59,2.86-.1,7.04,1,10.26-2.88.28-6.46-.38-9.25,0ZM115.28,4.19c-9.99-2.49-20.29-3-30.23.08l-4.21,1.63c3.97-.49,8.12-2.25,12.09-2.57,4.67-.38,10.71-.33,15.38.01,2.02.15,4.08.93,5.99,1.13.3.03,1.07.2.99-.28ZM79.98,6.18c-5.88,1.94-12,5.19-16.79,9.11l9.77-5.74,7.02-3.37Z"/>
  <path d="M74.57,55.75c-.18-3.25,1.07-5.51.09-8.78-1.88-6.2-8.36-7.25-13.46-4.19,3.74-.27,7.42-1.45,10.54,1.42,2.47,2.27,3.39,6.13,2.27,9.27l-.56-.29c-.41,4.69-5.19,8.29-9.79,6.23-6.75-3.03-4.29-13.7,3.36-12.48,2.22.35,3.73,2.9,5.28,4.26-.27-2.23-2.12-4.5-4.16-5.38-5.74-2.49-9.59,3.57-10.23,8.53-1.46.08-2.74-.03-4.08-.61.26-3.22,1.93-6.47,4.1-8.81,1.49-1.6,3.13-2.47,4.53-4.29,3.06-3.99,4-7.95,8.56-11.09,8.56-5.9,28.82-6.28,38.51-3.2,4.27,1.36,6.02,4.11,8.24,7.77,2.75.17,5.76.07,8.48.28,5.22.41,10.21.73,12.65,6.13,2.11-.26,4.58-1.29,6.12.72,1.87,2.45.39,3.22.16,5.54-.19,1.87.5,3.68.27,5.54-.54.56-11.45.22-13.23.29-.61.02-1.15.27-1.7.29-1.56.08-3.53-.23-5,.13-1.79.43-1.84,2.42-2.71,3.84-2.51,4.08-7.62,4.8-11.22,1.59-3.85-3.42-2.77-11.16,2.78-12.04,4.31-.69,5.77.98,7.69,4.42.36.64.36.62.36-.07,0-2.36-2.81-5.67-5.06-6.05-6.9-1.18-9.52,5.08-10.36,10.72l-21.02.33,5.41.57c-1.11,3.88-6.82,3.8-8.96.85-.38-.53-.36-1.42-.43-1.42h-7.4ZM114.99,34.1c-.49-1.56-2.75-3.76-4.18-4.51-1.13-.59-5.31-1.76-6.5-1.76h-6.12c.48,2.66,2.48,4.57,4.41,6.27h12.38ZM83.11,29.4c-.32,1.17.24,3.64,0,4.99l14.81-.72c-.96-1.87-2.32-4.96-4.54-5.42-1.78-.37-7.11-.18-8.98.16-.38.07-1.21.72-1.29.99ZM80.84,28.69c-3.91,1.12-9.73,2.49-11.1,6.84,2.31-.54,8.45.1,10.24-1,.84-.52.88-4.76.86-5.83ZM127.8,37.23c-.6-.71-2.83-.81-3.83-.86-9.75-.55-19.88.1-29.6.31-8.7.19-17.27,0-25.88,1.44-.55.09-2.37.27-2.16,1.11,4.46-1.02,8.98-.96,13.5-1.15,6.79-.29,14.13-.47,21.07-.57,8.98-.13,17.97.23,26.91-.28ZM123.53,41.22c-2.05-1.63-5.84-1.84-8.36-1.67-9.97.68-17.08,6.11-25.03,11.41l-5.32,1.94c6.87.07,11.23-4.82,16.71-7.92,4.46-2.52,9.09-4.09,14.18-4.9l7.83,1.14ZM126.58,40.69c-2.58.7-.61,5.82,1.3,5.33,2.4-.61,1.26-6.03-1.3-5.33ZM143.37,41.59c-1.51-1.33-2.41,2.28-.92,3.63,2.37,2.14,2.4-2.33.92-3.63ZM138.76,41.51c-1.4-.35-4.12.26-5.69,0l-.43.85h5.84c.1,0,.42-.37.71-.29.07-.1-.32-.54-.43-.57ZM139.47,43.79h-4.41c-.32,0-2.32.34-2.42.85,2.17.31,4.51.55,6.66.03l.17-.88ZM139.47,46.64h-6.55v.85c.69-.29,1.75.29,2.13.29h4.41v-1.14ZM132.92,49.77h6.69l.29-.57c-.37-.51-6.42-.89-6.85-.3l-.13.87ZM114.63,49.27c-4.74.81-1.38,10.41,3.06,7.34s1.44-8.11-3.06-7.34ZM68.56,52.29c-1.15-5.34-8.41-1.63-4.95,2.9,2.42,3.17,5.76,1.28,5.56-2.28-.98.05-1.2,1.48-2,1.85-1.57.72-3.46-1.54-3.12-1.85l2.28.85-.03-.72,2.26-.75Z"/>
  <path d="M203.09,87.09c.08-.01.32-.43.42-.28.05,1.3-1.42,1.82-2.05,2.93-.42.75-.71,1.77-.79,2.63-1.03,10.32.78,22.28-.02,32.78-.17,2.17,2.28,3.87,2.92,5.35.14.33.23.73-.19.75l-10.96-4.27c.16-1.4.89-.51.1-2.24-2.6-5.74-8.5-13.43-12.01-19.03-.18-.28-.31-.61-.34-.95-.47-.08-.26.38-.28.71-.2,3.61.08,7.24.3,10.82.16,2.65-.56,3.64,1.06,6.06.56.83,1.58,1.32,1.49,2.36l-13.09-2.99c.93-.94,2.3-1.69,2.54-3.15.78-4.67-.54-11.35,0-16.24.14-3.34.82-8.38.23-11.6-.34-1.85-1.76-2.32-2.78-3.62h11.39c-.87.96-1.13,1.47-.63,2.77l12.87,20.31-.3-19.79c-.15-1.58-2.13-2-2.55-3.29,3.94-.39,8.85.52,12.67,0Z"/>
  <path d="M11.39,87.38c-1.17,1.51.57,3.6,1.37,5.04,3.03,5.39,7.3,10.71,10.86,15.76.33-4.11.4-8.27.3-12.41-.02-.82-.29-1.51-.32-2.27-.06-1.55.72-2.09-.25-4.01-.48-.96-1.65-1.03-1.72-2.11l13.09-.57-2.62,2.93c-1.52,4.04-.46,8.4-.5,12.61-.05,4.83-.94,11.55-.31,16.24.22,1.66,1.95,2.2,2.85,3.41.01.54-4.25.64-4.94.75-2.46.37-4.89.91-7.16,1.95l-.42-.7,1.37-1.05-.1-1.08-12.37-17.11v18.66c0,.85,2.4,2.12,2.98,2.71.28.29.62.36.15.71-4.84.34-9.08,2.77-13.67,3.84,1.12-1.74,2.54-3.41,2.85-5.55-.54-10.34.71-21.39.01-31.64-.07-1-.21-2.18-.61-3.09-.56-1.28-1.89-1.73-2.25-3.02h11.39Z"/>
  <path d="M108.16,86.52c-.39,1.07-1.54,1.46-2.23,2.47-2.07,3.02-5.86,16.11-7.02,20.32-.19.67-1.06,4.3-1,4.69.14,1.01,1.94,1.6,2,2.72-3.89.11-7.85-.36-11.67.57-.39-1.67,1.55-1.36,1.36-2.92l-3.92-11.04-3.41,11.01c-.12,1.38,1.95,1.29,1.7,2.67-3.97-.22-7.87.59-11.81.86-.42-1.72,2.79-1.65,1.72-4-3.06-5.62-5.03-20.54-8.74-24.87-.3-.35-2.64-1.82-2.23-2.18l13.66-.28c-.67,1.23-2.33,1.71-2.29,3.26.06,2.04,2.34,9.13,3.07,11.49.28.91.53,2.35,1.21,2.91.54-2.63,1.81-5.04,2.48-7.63.37-1.42,1.55-6.71,1.07-7.75-.39-.85-2.15-1.1-2.13-2.28h11.67c-.39.64-1.54,1.07-2,1.64-.29.37-.58.82-.56,1.31,1.07,4.16,2.46,8.21,3.66,12.34.11.38-.19.79.46.67l4.28-13.08-1.85-2.88h12.52Z"/>
  <path d="M149.09,87.18c6.3-.64,15.39,2.38,16.5,9.53.46,2.98.37,11.33.08,14.47-.54,5.9-6.41,9-11.84,8.69-14.97-.85-16.71-9.16-15.8-22.39.41-5.93,5.41-9.73,11.06-10.3ZM149.36,94.85c-1.36.23-3.18,1.7-3.5,3.05v10.57c.72,2.68,5.06,3.58,7.43,3.69,1.77.08,4.35-.69,4.67-2.72.54-3.41-.26-8.27-.11-11.82-1.56-2.56-5.72-3.23-8.49-2.77Z"/>
  <path d="M46.68,112.74c3.57-.82,7.9-.27,11.4-1.27,2.06-.59,2.65-2.25,4.41-3.28.49-.07.44-.02.43.43-.05,3.32-1.23,6.97-.86,10.4-8.77.13-17.59,1.45-26.19,3.13.82-2.31,2.89-3.11,3.14-5.83.75-8.02-.57-17.21-.03-25.35-.1-.58-.72-1.59-1.13-2.01-.7-.72-1.94-.75-1.71-1.85,1.13-.21,2.21.26,3.26.3,5.03.17,11.58.35,16.53,0,1.8-.13,3.45-.46,4.97-1.44l1.43,11.39c-.45.48-1.59-1.42-1.81-1.61-1.87-1.6-3.06-1.6-5.46-1.54-2.23.06-4.84.46-7.11.53-.4.01-.84-.29-1.28-.23v5.7c3.67-.55,8.31.9,10.68-2.56.61-.26.44.67.44,1.01,0,.81-.28,1.49-.31,2.26-.09,2.42.09,4.86.01,7.28-1.03.27-.83-.56-1.42-1-1.73-1.27-7.14.28-9.39-.15v5.7Z"/>
  <path d="M134.63,86.52v11.4c-1.31-.23-1.26-2.21-2.36-2.94-1.61-1.07-4.55-.79-6.47-1.05-.22,4.5-.46,9.03-.3,13.55.03.74.26,1.34.3,1.98.1,1.72-.38,3.94.57,5.41.31.48,2.7,2.04,2.28,2.42l-12.63-.32-.33-.53c3.49-2.3,1.88-6.63,1.84-10.1-.04-4.15.28-8.26.3-12.41h-4.41c-.98,0-2.07,1.17-2.7,1.86s-.65,1.81-1.71,1.56c-.61-.59,1.38-9.66.57-11.11,1.19.1,2.36.51,3.55.58,5.74.35,13.02.21,18.81,0,.9-.03,1.77-.45,2.69-.3Z"/>
  <path d="M101.84,58.4c1.43-.03,3.91-.35,5.2.04.48.15,3.79,3.36,4.1,3.87,2.1,3.47-.92,9.6-3.27,12.38s-7,3.33-10.38,3c-5.76-.57-9.79-7.51-9.25-12.96.31-3.15,2.8-3.93,4.75-6.07,2.95.06,5.91-.2,8.85-.26ZM103.72,62.48c-1.81-2.01-4.6-2.71-7.12-1.62-.12.05-2.01,1.46-2.12,1.57-1.65,1.53-1.63,3.82-1.11,5.86l.56-1.14c.21,1.96,2.84,4.62,4.7,4.84.86.1,1.83-.06,2.7,0l-3.5-.55-.77-1.72c2.11.9,3.56.91,5.61-.23,1.8-1,2.84-4.36,1.86-6.26-.23-.44-.57-.49-.81-.75Z"/>
  <path d="M83.4,130.97v-6.84h3.13s-.29,13.11-.29,13.11c-.68-.55-1.99-.06-2.5-.35-.29-.16-3.2-4.57-3.9-5.36-.35-.4-.78-.74-1.14-1.13-.47.23.14.83.14,1v5.84l-2.84.28-.56-12.97.58-.31,2.26.32,5.12,6.41Z"/>
  <path d="M47.25,139.51l-3.13-.14c-1.41-1.38-1.75-4.1-4.27-3.56l.28,4.56-3.13.29-.29-13.11c2.69.46,5.6-1.11,7.95.45,2.62,1.74,2.92,5.46.09,7.09l2.49,4.43ZM39.56,133.25c1.09-.06,4,.37,4.27-.99.58-2.9-1.9-2.6-4.01-2.3l-.27,3.3Z"/>
  <path d="M23.62,129.69c-.01-.12-.39-.39-.28-.71,3.57.29,6.58-1.39,9.39,1.65,3.51,3.8.85,8.95-3.69,10.19-1.69.46-3.71.42-5.42.98-.32-3.84.44-8.36,0-12.11ZM26.47,132.54c.18,1.76-.13,3.77,0,5.56,7.1.68,6.38-8.08-.29-6.55-.16.42.27.8.29,1Z"/>
  <path d="M134.35,124.7v5.41h4.7l.43-.43v-4.99l3.14.43v12.67c-1.06-.65-2.03.02-3.14,0v-4.84h-5.12v4.84l-2.56-.28-.29-12.68c-.02-.63-.06-.39.3-.3.88.2,1.67.19,2.55.16Z"/>
  <path d="M99.76,129.55c.29.21.31.25.31.58,0,.97-.1,3.99-.48,4.66-.28.49-1.25,1.11-1.77,1.36-7.53,3.73-12.47-7.05-6.27-11.12,3.25-2.12,4.92-.62,8.06.53l-2.42,2.56c-1.01-2.58-4.44-1.44-5.29.69-.52,1.32-.28,3.69.85,4.6,1.44,1.16,4.87.84,4.29-1.59l-2.27.57v-2.85s4.98,0,4.98,0Z"/>
  <path d="M87.1,75.13l-35.01-.28-.02-1.55c.11-.64,5.84-.4,6.72-.44.67-.03,1.3-.29,1.97-.31,8.26-.25,16.68.09,24.91.16l1.43,2.42Z"/>
  <path d="M163.02,127.04c4.68-.91,8.28,5.26,5.84,9.27-4.55,7.48-13.71-.75-9.87-6.46.67-1,2.88-2.59,4.04-2.81ZM163.3,130.17c-2.96.67-2.94,5.68-.06,5.94,5.01.44,3.68-6.76.06-5.94Z"/>
  <path d="M149.36,125.91c2.91-.49,5.12.49,6.3,3.24,3.13,7.28-6.84,12.63-10.08,5.82-1.71-3.58-.52-8.33,3.78-9.06ZM148.68,129.36c-2.46,2.34-.13,7.92,3.42,5.27s-.68-7.87-3.42-5.27Z"/>
  <path d="M146.02,77.41l-.45,2.01-36.84.27c-.06-1.21,1.28-2.15,2.41-2.28,6.04-.71,14.02.29,20.2.3,4.88,0,9.76-.56,14.67-.3Z"/>
  <path d="M116.7,125.84c-.82.15-1.45,1.23-1.71,2h-.41c-.77-1.42-4.43-1.64-4.44.15,0,1.22,5.04,1.31,6.24,3.17,1.08,1.67.13,3.75-1.23,4.96-2.67,2.36-5.42.69-8.12-.58-.21-.28,1.17-2.12,1.62-2.24.74-.19,1.25.67,1.94.8.52.1,2.3.11,2.7-.13,1.64-2.07-2.04-1.93-3.5-2.49-5.81-2.25-1.31-9.1,4.55-7.12.33.11,2.55,1.22,2.36,1.48Z"/>
  <path d="M147.73,74.84h-35.58l.89-2.25,30.28-.03c1.72.54,4.6-.35,4.41,2.28Z"/>
  <path d="M91.08,79.4l-36.59.3c-1.41.1-1.41-2.12,0-2.02,9.78-.1,19.57.18,29.34.03,2.38-.04,6.08-1.39,7.25,1.7Z"/>
  <path d="M66.89,124.7l-4.55,13.11-2.53-.03-4.87-12.22,2.84-.28,3,7.97c1.69-2.38,2.19-5.48,2.84-8.28l3.28-.27Z"/>
  <path d="M129.22,127.26c-.98.1-1.27,1.09-1.85,1.71-4-5.12-8.27,2.72-3.57,5.01,1.53.74,2.11.03,3.28-.96l2.25,1.35.18.58c-2.7,1.29-4.01,3.14-7.18,1.64-4.9-2.32-4.37-10.97,1.12-12.11,2.04-.42,4.98.86,5.77,2.78Z"/>
  <path d="M175.33,127.84c-.08,2.03-.82,7.53-.24,9.22.42,1.25,4.58.4,5.65,1.05l-.28,3.12c-2.66-.85-5.5-.5-8.25-.85v-12.82s3.13.29,3.13.29Z"/>
  <path d="M141.46,55.18c-2.51,6.49-9.37,5.6-12.81.42l12.81-.42Z"/>
  <path d="M72.3,124.7v12.82h-2.85c-.01-1.5-.29-2.91-.3-4.43,0-.9.33-1.67.32-2.55s-.68-5.47-.31-5.84h3.13Z"/>
  <polygon points="52.94 126.13 52.66 138.66 49.81 138.95 49.53 126.56 49.95 126.19 52.94 126.13"/>
  <path d="M19.64,134.97v1.98s-13.09,0-13.09,0l.02-1.97c4.33.25,8.77-.77,13.07-.01Z"/>
  <path d="M196.26,134.96c.59.18.67,1.78-.04,1.95l-12.63.33.29-2.28h12.38Z"/>
  <path class="cls-1" d="M83.11,29.4c.07-.27.91-.92,1.29-.99,1.87-.35,7.19-.54,8.98-.16,2.22.47,3.59,3.55,4.54,5.42l-14.81.72c.24-1.35-.32-3.81,0-4.99Z"/>
  <path class="cls-1" d="M114.99,34.1h-12.38c-1.93-1.7-3.93-3.61-4.41-6.27h6.12c1.19,0,5.37,1.17,6.5,1.76,1.43.75,3.69,2.95,4.18,4.51Z"/>
  <path class="cls-1" d="M127.8,37.23c-8.94.51-17.93.15-26.91.28-6.94.1-14.28.28-21.07.57-4.53.19-9.05.13-13.5,1.15-.21-.83,1.62-1.02,2.16-1.11,8.61-1.45,17.19-1.26,25.88-1.44,9.72-.21,19.86-.86,29.6-.31,1,.06,3.23.16,3.83.86Z"/>
  <path class="cls-1" d="M80.84,28.69c.02,1.07-.01,5.32-.86,5.83-1.79,1.1-7.93.47-10.24,1,1.37-4.34,7.19-5.71,11.1-6.84Z"/>
  <path class="cls-1" d="M114.63,49.27c4.5-.77,7.32,4.4,3.06,7.34s-7.8-6.53-3.06-7.34ZM118.38,52.36c-.55-.77-2.94.62-3.59,1.04-.28.18-.51-.03-.37.63.99.3,1.83.86,2.93.52.65-.2,1.37-1.71,1.02-2.19Z"/>
  <path class="cls-1" d="M123.53,41.22l-7.83-1.14c-5.09.81-9.72,2.37-14.18,4.9-5.47,3.1-9.83,7.99-16.71,7.92l5.32-1.94c7.96-5.3,15.06-10.73,25.03-11.41,2.52-.17,6.31.04,8.36,1.67Z"/>
  <path class="cls-1" d="M68.56,52.29l-2.26.75.03.72-2.28-.85c-.34.31,1.56,2.57,3.12,1.85.8-.36,1.02-1.8,2-1.85.2,3.57-3.13,5.46-5.56,2.28-3.46-4.53,3.79-8.24,4.95-2.9Z"/>
  <path class="cls-1" d="M126.58,40.69c2.56-.69,3.7,4.72,1.3,5.33-1.91.48-3.88-4.63-1.3-5.33Z"/>
  <path class="cls-1" d="M143.37,41.59c1.48,1.3,1.45,5.77-.92,3.63-1.49-1.35-.6-4.96.92-3.63Z"/>
  <path class="cls-1" d="M132.92,49.77l.13-.87c.43-.59,6.48-.21,6.85.3l-.29.57h-6.69Z"/>
  <path class="cls-1" d="M139.47,46.64v1.14h-4.41c-.38,0-1.45-.58-2.14-.29v-.85h6.55Z"/>
  <path class="cls-1" d="M139.47,43.79l-.17.88c-2.15.53-4.49.28-6.66-.03.1-.51,2.1-.85,2.42-.85h4.41Z"/>
  <path class="cls-1" d="M138.76,41.51c.1.03.5.47.43.57-.29-.09-.61.29-.71.29h-5.84l.43-.85c1.57.26,4.29-.35,5.69,0Z"/>
  <path class="cls-1" d="M39.56,133.25l.27-3.3"/>
  <path d="M118.38,52.36c.34.48-.37,1.99-1.02,2.19-1.1.34-1.94-.22-2.93-.52-.14-.66.09-.46.37-.63.65-.42,3.05-1.81,3.59-1.04Z"/>
  <path d="M101.61,66.58c.36.32-2.34,3.3-3.12,1.85.63-1.47,1.5-1.84,3.12-1.85Z"/>
</svg>